<?xml version="1.0" encoding="UTF-8"?>
<svg width="50px" height="50px" viewBox="0 0 50 50" version="1.1" xmlns="http://www.w3.org/2000/svg" xmlns:xlink="http://www.w3.org/1999/xlink">
    <!-- Generator: Sketch 50.2 (55047) - http://www.bohemiancoding.com/sketch -->
    <title>bitcoin slice</title>
    <desc>Created with Sketch.</desc>
    <defs></defs>
    <g id="Symbols" stroke="none" stroke-width="1" fill="none" fill-rule="evenodd">
        <g id="bitcoin-slice-white" fill="#FFFFFF">
            <path d="M23.4824,20.8583 L24.9924,20.8583 C25.5774,20.8093 26.2104,20.8583 26.7954,21.0043 C27.4774,21.1993 27.9154,21.7843 27.8664,22.4663 C27.8664,22.8073 27.7694,23.0993 27.5744,23.3913 C27.3794,23.6833 27.0874,23.8783 26.7464,23.9763 C26.1614,24.1223 25.5774,24.1713 24.9924,24.1713 L23.4824,24.1713 L23.4824,20.8583 Z M23.4824,26.2169 L25.1874,26.2659 C25.7724,26.2169 26.3564,26.3139 26.9414,26.4609 C27.2824,26.5579 27.6234,26.8019 27.8184,27.0939 C28.0124,27.3859 28.1104,27.7759 28.1104,28.1169 C28.1104,28.5549 27.9644,28.9449 27.7204,29.2859 C27.4774,29.6269 27.1364,29.8709 26.7464,29.9679 C26.2594,30.0649 25.7724,30.1139 25.2844,30.1139 L24.2614,30.1139 C24.0184,30.1629 23.8234,30.1629 23.6284,30.1139 C23.5794,30.0649 23.5314,30.0169 23.4824,29.9189 L23.4824,29.1889 L23.4824,26.2169 Z M31.1792,21.9301 C31.1792,22.3681 31.0822,22.8071 30.8872,23.2451 C30.6922,23.6351 30.4002,24.0251 30.0592,24.3171 C29.6202,24.6581 29.1332,24.9021 28.6462,25.0961 C29.1822,25.1941 29.6692,25.3891 30.1072,25.6321 C30.5942,25.9251 30.9842,26.3141 31.2762,26.8011 C31.5692,27.2891 31.7152,27.8731 31.7152,28.4581 C31.7152,29.1881 31.4712,29.8701 31.0822,30.4551 C30.6432,31.0881 29.9612,31.5751 29.2302,31.8681 C28.8892,32.0141 28.5482,32.1111 28.2072,32.1601 L28.2072,34.5961 L25.8692,34.5961 L25.8692,32.3061 L24.4082,32.3061 L24.4082,34.5471 L22.0692,34.5471 L22.0692,32.3061 L18.5132,32.3061 L18.5132,30.4061 L19.0492,30.4061 C19.2932,30.4551 19.5362,30.4061 19.7802,30.3091 C19.8772,30.2601 19.9752,30.1631 20.0722,30.0651 C20.1702,29.8221 20.1702,29.5781 20.1702,29.2861 L20.1702,21.6381 C20.1702,21.3941 20.1702,21.1021 20.0722,20.8581 C20.0232,20.7611 19.9262,20.6631 19.7802,20.6151 C19.5362,20.5171 19.2932,20.5171 19.0492,20.5171 L18.5132,20.5171 L18.5132,18.6661 L22.0692,18.6661 L22.0692,16.4251 L24.4082,16.4251 L24.4082,18.6661 L25.9182,18.6661 L25.9182,16.4251 L28.2562,16.4251 L28.2562,18.7641 C28.5482,18.8121 28.8892,18.9101 29.1822,19.0071 C29.8152,19.2511 30.3512,19.6401 30.7412,20.1761 C31.0332,20.7121 31.2282,21.3451 31.1792,21.9301 M22.1672,10.1901 C13.6912,11.7971 8.1372,19.9811 9.7452,28.4091 C11.3522,36.8851 19.5362,42.4391 27.9642,40.8311 C36.4402,39.2241 41.9942,31.0401 40.3862,22.6121 C38.7782,14.0871 30.6432,8.5821 22.1672,10.1901" id="Fill-15"></path>
        </g>
    </g>
</svg>