<?xml version="1.0" encoding="UTF-8"?>
<svg width="50px" height="50px" viewBox="0 0 50 50" version="1.1" xmlns="http://www.w3.org/2000/svg" xmlns:xlink="http://www.w3.org/1999/xlink">
    <!-- Generator: Sketch 50.2 (55047) - http://www.bohemiancoding.com/sketch -->
    <title>in slice</title>
    <desc>Created with Sketch.</desc>
    <defs></defs>
    <g id="Symbols" stroke="none" stroke-width="1" fill="none" fill-rule="evenodd">
        <g id="in-slice-white" fill="#FFFFFF">
            <g id="in" transform="translate(9.000000, 7.000000)">
                <polygon id="Fill-7" points="1.003 28.9207 7.092 28.9207 7.092 9.7277 1.003 9.7277"></polygon>
                <path d="M17.6145,12.7474 L17.6145,9.7274 L10.7945,9.7274 C10.8925,11.3344 10.7945,28.9204 10.7945,28.9204 L17.6145,28.9204 L17.6145,18.5444 C17.5665,18.0084 17.6145,17.4724 17.7615,16.9854 C18.2485,15.5734 19.5635,14.5984 21.0245,14.5984 C23.4115,14.5984 24.4835,16.3524 24.4835,18.9834 L24.4835,28.9204 L31.3525,28.9204 L31.3525,18.2034 C31.3525,12.3094 27.9425,9.5324 23.6555,9.5324 C20.1965,9.5324 18.0045,11.4324 17.6145,12.7474 Z" id="Fill-9"></path>
                <path d="M3.8775,0.6664 C2.0265,0.4714 0.3705,1.8354 0.1755,3.7354 L0.1755,4.0274 C0.1755,5.8784 1.6855,7.3894 3.5365,7.3894 L3.7315,7.3894 C5.5825,7.5354 7.1905,6.1714 7.3365,4.3204 C7.4825,2.4684 6.1185,0.8614 4.2675,0.7154 L3.6825,0.7154 L3.8775,0.6664 Z" id="Fill-10"></path>
            </g>
        </g>
    </g>
</svg>