<?xml version="1.0" encoding="UTF-8"?>
<svg width="50px" height="50px" viewBox="0 0 50 50" version="1.1" xmlns="http://www.w3.org/2000/svg" xmlns:xlink="http://www.w3.org/1999/xlink">
    <!-- Generator: Sketch 50.2 (55047) - http://www.bohemiancoding.com/sketch -->
    <title>m slice</title>
    <desc>Created with Sketch.</desc>
    <defs></defs>
    <g id="Symbols" stroke="none" stroke-width="1" fill="none" fill-rule="evenodd">
        <g id="m-slice" fill="#D3D7E1">
            <path d="M41.1771,16.6024 C41.1771,16.6024 39.6671,19.0864 36.6951,23.9094 L31.4831,32.3854 L24.7601,21.3764 L30.4111,12.2184 C30.7031,11.7794 31.2881,11.5844 31.7751,11.8284 L41.1771,16.5054 C41.1771,16.5054 41.2261,16.5534 41.1771,16.6024 Z M41.2261,18.6974 L41.2261,37.0134 C41.2261,37.2574 41.1281,37.5004 40.9821,37.6954 C40.8361,37.8904 40.5921,37.9884 40.3001,37.9884 C40.0081,37.9884 39.7161,37.8904 39.4721,37.7444 L31.7751,33.8964 L41.2261,18.6974 Z M21.5451,18.3564 L30.8011,33.4084 L21.5451,28.7814 L21.5451,18.3564 Z M20.4251,16.6024 L20.4251,37.0134 C20.4251,37.2574 20.3761,37.5494 20.1811,37.7444 C20.0351,37.9394 19.7911,38.0364 19.5481,38.0364 C19.3531,38.0364 19.1581,37.9884 18.9631,37.8904 L10.8771,33.8474 C10.6331,33.7014 10.3901,33.5064 10.2431,33.2624 C10.0971,33.0194 10.0001,32.7264 10.0001,32.4344 L10.0001,12.6564 C10.0001,12.4614 10.0491,12.2184 10.1951,12.0724 C10.2921,11.9254 10.4871,11.8284 10.6821,11.8284 C10.9741,11.8774 11.2181,11.9744 11.4611,12.0724 L20.3761,16.5054 C20.4251,16.5534 20.4251,16.6024 20.4251,16.6024 Z" id="Fill-5"></path>
        </g>
    </g>
</svg>