<?xml version="1.0" encoding="UTF-8"?>
<svg width="50px" height="50px" viewBox="0 0 50 50" version="1.1" xmlns="http://www.w3.org/2000/svg" xmlns:xlink="http://www.w3.org/1999/xlink">
    <!-- Generator: Sketch 50.2 (55047) - http://www.bohemiancoding.com/sketch -->
    <title>reddit slice</title>
    <desc>Created with Sketch.</desc>
    <defs></defs>
    <g id="Symbols" stroke="none" stroke-width="1" fill="none" fill-rule="evenodd">
        <g id="reddit-slice-white" fill="#FFFFFF">
            <path d="M31.896,31.311 C32.702,31.311 33.388,31.025 33.954,30.453 C34.52,29.881 34.803,29.191 34.803,28.385 C34.803,27.592 34.516,26.909 33.944,26.337 C33.372,25.765 32.689,25.478 31.896,25.478 C31.09,25.478 30.4,25.761 29.828,26.327 C29.256,26.893 28.97,27.579 28.97,28.385 C28.97,29.191 29.256,29.881 29.828,30.453 C30.4,31.025 31.09,31.311 31.896,31.311 M31.955,35.31 C32.098,35.167 32.169,34.998 32.169,34.803 C32.169,34.608 32.098,34.439 31.955,34.296 C31.824,34.166 31.662,34.1 31.467,34.1 C31.272,34.1 31.103,34.166 30.96,34.296 C30.426,34.842 29.64,35.245 28.599,35.505 C27.559,35.765 26.519,35.895 25.478,35.895 C24.438,35.895 23.398,35.765 22.357,35.505 C21.317,35.245 20.53,34.842 19.997,34.296 C19.854,34.166 19.685,34.1 19.49,34.1 C19.295,34.1 19.132,34.166 19.002,34.296 C18.859,34.426 18.787,34.591 18.787,34.793 C18.787,34.995 18.859,35.167 19.002,35.31 C19.561,35.869 20.332,36.311 21.314,36.636 C22.295,36.961 23.092,37.153 23.703,37.212 C24.314,37.27 24.906,37.3 25.478,37.3 C26.05,37.3 26.642,37.27 27.253,37.212 C27.865,37.153 28.661,36.961 29.643,36.636 C30.625,36.311 31.395,35.869 31.955,35.31 M16.154,28.385 C16.154,29.191 16.437,29.881 17.003,30.453 C17.568,31.025 18.254,31.311 19.061,31.311 C19.867,31.311 20.556,31.025 21.128,30.453 C21.7,29.881 21.987,29.191 21.987,28.385 C21.987,27.579 21.7,26.893 21.128,26.327 C20.556,25.761 19.867,25.478 19.061,25.478 C18.267,25.478 17.585,25.765 17.012,26.337 C16.44,26.909 16.154,27.592 16.154,28.385 M42.956,24.503 C42.956,25.257 42.765,25.943 42.381,26.561 C41.997,27.179 41.48,27.65 40.83,27.975 C40.986,28.574 41.064,29.198 41.064,29.848 C41.064,31.864 40.372,33.73 38.987,35.446 C37.602,37.163 35.713,38.519 33.32,39.514 C30.927,40.508 28.326,41.006 25.517,41.006 C22.708,41.006 20.111,40.508 17.724,39.514 C15.338,38.519 13.452,37.163 12.067,35.446 C10.682,33.73 9.99,31.864 9.99,29.848 C9.99,29.237 10.061,28.626 10.204,28.014 C9.541,27.689 9.008,27.211 8.605,26.581 C8.202,25.95 8,25.257 8,24.503 C8,23.437 8.377,22.523 9.132,21.762 C9.886,21.002 10.803,20.621 11.882,20.621 C12.987,20.621 13.93,21.031 14.71,21.85 C17.545,19.873 20.894,18.82 24.757,18.69 L27.019,8.527 C27.058,8.358 27.156,8.221 27.312,8.117 C27.468,8.013 27.637,7.981 27.819,8.02 L35.017,9.6 C35.251,9.119 35.602,8.732 36.07,8.439 C36.539,8.147 37.052,8 37.612,8 C38.418,8 39.107,8.283 39.679,8.849 C40.251,9.415 40.538,10.101 40.538,10.907 C40.538,11.713 40.251,12.402 39.679,12.975 C39.107,13.547 38.418,13.833 37.612,13.833 C36.805,13.833 36.119,13.55 35.554,12.984 C34.988,12.419 34.705,11.733 34.705,10.926 L28.19,9.483 L26.161,18.69 C30.062,18.807 33.437,19.847 36.285,21.811 C37.039,21.018 37.969,20.621 39.075,20.621 C40.154,20.621 41.071,21.002 41.825,21.762 C42.579,22.523 42.956,23.437 42.956,24.503" id="Fill-16"></path>
        </g>
    </g>
</svg>