<?xml version="1.0" encoding="UTF-8"?>
<svg width="50px" height="50px" viewBox="0 0 50 50" version="1.1" xmlns="http://www.w3.org/2000/svg" xmlns:xlink="http://www.w3.org/1999/xlink">
    <!-- Generator: Sketch 50.2 (55047) - http://www.bohemiancoding.com/sketch -->
    <title>telegram slice@1x</title>
    <desc>Created with Sketch.</desc>
    <defs></defs>
    <g id="Symbols" stroke="none" stroke-width="1" fill="none" fill-rule="evenodd">
        <g id="telegram-slice-white" fill="#FFFFFF">
            <path d="M30.921,33.747 C30.629,34.38 29.898,34.721 29.265,34.429 C29.216,34.429 29.167,34.38 29.119,34.38 L24.15,30.532 L20.983,33.406 C20.837,33.503 20.642,33.552 20.447,33.455 L21.032,28.096 L21.032,27.999 C21.032,27.999 29.947,20.01 30.288,19.669 C30.629,19.328 30.531,19.23 30.531,19.23 C30.531,18.792 29.898,19.23 29.898,19.23 L18.109,26.732 L13.189,25.076 C13.189,25.076 12.458,24.832 12.361,24.199 C12.263,23.614 13.238,23.273 13.238,23.273 L32.772,15.625 C32.772,15.625 34.38,14.943 34.38,16.112 L30.921,33.747 Z M24.588,9 C15.966,9 9,15.966 9,24.589 C9,33.211 15.966,40.177 24.588,40.177 C33.211,40.177 40.177,33.211 40.177,24.589 C40.177,15.966 33.211,9 24.588,9 Z" id="Fill-3"></path>
        </g>
    </g>
</svg>