<?xml version="1.0" encoding="UTF-8"?>
<svg width="50px" height="50px" viewBox="0 0 50 50" version="1.1" xmlns="http://www.w3.org/2000/svg" xmlns:xlink="http://www.w3.org/1999/xlink">
    <!-- Generator: Sketch 50.2 (55047) - http://www.bohemiancoding.com/sketch -->
    <title>twitter slice</title>
    <desc>Created with Sketch.</desc>
    <defs></defs>
    <g id="Symbols" stroke="none" stroke-width="1" fill="none" fill-rule="evenodd">
        <g id="twitter-slice" fill="#D3D7E1">
            <path d="M39.4292,12.8356 C38.9422,14.3456 37.9682,15.6606 36.7012,16.4896 C37.9682,16.3426 39.1852,16.0016 40.3552,15.4666 C39.5262,16.7816 38.4552,17.9506 37.1882,18.8766 L37.1882,19.7046 C37.1882,28.3756 30.8072,38.3616 19.0662,38.3616 C15.6082,38.3616 12.1982,37.3386 9.3242,35.4386 C9.8112,35.4876 10.3472,35.5366 10.8342,35.5366 C13.7082,35.5856 16.5332,34.5626 18.7742,32.7596 C15.9972,32.7106 13.6102,30.8596 12.8312,28.2296 C13.2692,28.2776 13.6592,28.3266 14.0492,28.3266 C14.5852,28.3266 15.1692,28.2296 15.7052,28.0836 C12.6852,27.4016 10.5412,24.7216 10.5902,21.6526 L10.5902,21.5556 C11.4672,22.0426 12.4412,22.3346 13.4642,22.3836 C11.6622,21.1656 10.6392,19.1196 10.6392,16.9276 C10.6392,15.7586 10.9312,14.6376 11.4672,13.6146 C14.6332,17.7066 19.4072,20.1916 24.5712,20.4836 C24.4742,19.9966 24.4252,19.4606 24.4252,18.9736 C24.3282,15.3686 27.2022,12.4456 30.7582,12.3976 C32.5122,12.3976 34.2172,13.1276 35.3862,14.4436 C36.7982,14.1506 38.1622,13.6146 39.4292,12.8356 Z" id="Fill-1"></path>
        </g>
    </g>
</svg>