<?xml version="1.0" encoding="UTF-8"?>
<svg width="50px" height="50px" viewBox="0 0 50 50" version="1.1" xmlns="http://www.w3.org/2000/svg" xmlns:xlink="http://www.w3.org/1999/xlink">
    <!-- Generator: Sketch 50.2 (55047) - http://www.bohemiancoding.com/sketch -->
    <title>youtube slice</title>
    <desc>Created with Sketch.</desc>
    <defs></defs>
    <g id="Symbols" stroke="none" stroke-width="1" fill="none" fill-rule="evenodd">
        <g id="youtube-slice-white" fill="#FFFFFF">
            <path d="M21.9259,20.4404 L30.3539,24.8244 C30.3049,24.7764 21.9259,29.1604 21.9259,29.1604 L21.9259,20.4404 Z M39.1219,15.8124 C38.2939,14.9844 37.1739,14.4974 36.0039,14.4974 C31.6689,14.2054 25.1409,14.2054 25.1409,14.2054 C25.1409,14.2054 18.6129,14.2054 14.2289,14.5464 C13.0599,14.5464 11.9399,15.0334 11.1109,15.8614 C10.4289,16.7874 10.0399,17.8104 9.8939,18.9304 C9.6989,20.5864 9.6009,22.2914 9.5529,23.9484 L9.5529,26.2864 C9.5529,27.9914 9.6499,29.6474 9.8939,31.3034 C10.0399,32.4244 10.4779,33.4964 11.1109,34.3724 C12.0369,35.2014 13.2549,35.6884 14.5209,35.6884 C17.0549,35.9314 25.1409,35.9804 25.1409,35.9804 C25.1409,35.9804 31.6689,35.9804 36.0529,35.6394 C37.2219,35.6394 38.3429,35.1524 39.1709,34.3244 C39.8529,33.3984 40.2429,32.3754 40.3889,31.2554 C40.5839,29.5984 40.6809,27.8934 40.7299,26.2374 L40.7299,23.8994 C40.7299,22.2434 40.5839,20.5864 40.3399,18.8814 C40.1939,17.7614 39.7549,16.6894 39.1219,15.8124 Z" id="Fill-11"></path>
        </g>
    </g>
</svg>